<?xml version="1.0" encoding="UTF-8" standalone="no"?>
<svg xmlns:rdf="http://www.w3.org/1999/02/22-rdf-syntax-ns#" xmlns="http://www.w3.org/2000/svg" height="221.28003" width="272.87998" version="1.1" xmlns:cc="http://creativecommons.org/ns#" xmlns:dc="http://purl.org/dc/elements/1.1/" viewBox="0 0 272.87998 221.28003"><path d="M136.08,221.28l-18.12-23.52A59.12322,59.12322,0,0,1,77.4,145.2L66.12,130.68a152.37855,152.37855,0,0,0-21.36,11.88l-33.6-33.72,14.16-31.2L0,44.64H40.32l7.8-17.04,20.04-8.04,2.16-6,16.2,7.32L90.36,7.44,93,6.6A135.65434,135.65434,0,0,1,135.72,0h5.4c.48,0,2.76.24,2.76.24a134.20363,134.20363,0,0,1,35.76,6.24l2.64.84,3.48,12.84L191.64,15.84l32.88,11.52,7.8,17.28h40.56l-25.56,33,13.92,30.72-34.2,35.16s-12.48-9.12-21.12-12.48l-10.32,13.2a59.63014,59.63014,0,0,1-41.64,53.88Z" fill="#fff"/><polygon points="136.08 204.96 252.72 54.6 20.16 54.6 136.08 204.96" fill="#b3b2b1"/><path d="M252.72,54.6,136.08,204.96,20.16,54.6ZM10.68,49.92l125.4,162.84L262.32,49.92Z" fill="#006bb6"/><path d="M235.92,65.04l-.24-.12-7.44-5.04L231,54.6l.12-.24-.12-.12L220.68,31.68v-.12l-.12-.12-27.6-9.84h-.24l-.12.12-7.32,5.64h-.12v.12L183.96,30.6a246.98578,246.98578,0,0,0-28.44-4.56c-1.68-.12-6.24-.48-13.56-1.08l-.72-.12h-.96l-5.64,5.52V24.84s-15.48.72-25.68,2.16c-10.08,1.44-20.04,3.96-20.04,3.96L87,27l-.12-.12-.12-.12-13.08-6-.36-.12L73.2,21l-1.44,4.2-.36-.84L71.28,24l-.36.24L52.2,31.68l-.12.12h-.12L17.52,107.64l28.2,28.32,1.44-.72c.72-.48,1.92-1.2,3.36-2.04,3.48-2.04,8.16-4.8,10.44-5.88l.36-.24c2.88-1.44,4.44-2.04,18.12-8.04l1.2-.48s1.56-.6,4.32-1.56c7.56-2.4,27.24-8.28,46.32-8.28h2.4c13.08.36,28.08,3.12006,38.52,5.28,9.96,2.16,17.52,4.2,19.68,4.8l1.44.48A197.59845,197.59845,0,0,1,225,135.84l1.44.72,28.68-29.4Z" fill="#006bb6"/><path d="M232.68,67.68,205.2,49.32l-4.68-13.44,8.4,3.12,3.48,8.4,12.96,4.08L217.8,34.8l-24.48-8.64-4.56,3.48,8.16,26.52,26.16,18.48,6.6,16.68L218.76,86.4l-3.72-10.44L201.72,72l7.2,23.64c2.16.72,4.32,1.56,6.48,2.4,5.88,2.4,11.76,5.16,17.52,7.92,3.96,2.04,7.8,4.2,11.64,6.48l5.64-5.88Z" fill="#ff671b"/><path d="M47.04,80.16,56.16,72l2.16,2.52-9,26.04c5.04-2.16,9.96-4.2,15.12-6l6.48-21.48-5.64-9.36L76.92,52.56l6.96-22.92-8.4-3.84L67.92,47.4,55.68,57.84,66.72,30,54.84,34.8,22.08,106.68005l5.16,5.16c3.12-1.8,6.12-3.48,9.24-5.04Z" fill="#ff671b"/><path d="M130.08,28.8l-9.96.6-4.8,54c4.32-.36,8.64-.72,12.96-.84Z" fill="#ff671b"/><path d="M159.96,72.12,148.2,71.4l-1.92-33,9.96.36-1.2-9.12-13.32-.84-5.88,5.88V75.96l6.24,6.48a165.94651,165.94651,0,0,1,19.08,1.44Z" fill="#ff671b"/><path d="M93.72,50.16l4.2,20.52L95.28,86.16c4.08-.72,8.16-1.44,12.24-1.92L114,30l-9.36,1.44-3.12,17.64L98.16,32.64,87.12,35.28,72,92.04C76.32,90.6,80.88,89.4,85.32,88.32Z" fill="#ff671b"/><path d="M174.96,69.24l3.24-4.44,4.8,3.96,4.44,20.04c4.56,1.2,9.24,2.52,13.68,3.96l-8.16-29.4-8.52-6.96,4.8-6.48-4.08-15-10.2-2.28,4.08,15.12-6.36,8.4-4.8-24.72-9.48-1.2s4.68,36.36,7.08,54.24c4.2.6,8.52,1.32,12.84,2.16Z" fill="#ff671b"/><path d="M116.76,93.6s3.96-2.4,11.88-3.24l-.24-6.24c-4.32.12-8.64.36-12.96.84C115.8,87.36,116.4,91.08,116.76,93.6Z" fill="#b3b2b1"/><path d="M141.96,90a87.61454,87.61454,0,0,1,9.72,2.16,45.724,45.724,0,0,1,8.04,2.88l1.44-9.6c-6.48-.72-12.48-1.2-18.96-1.44C142.08,86.04,142.08,88.68,141.96,90Z" fill="#b3b2b1"/><path d="M100.32,105.24c3.6-2.76,5.88-5.64,9.72-8.04-.72-3.48-1.68-8.04-2.4-11.4-4.2.48-8.4,1.2-12.48,2.04C96.72,93.12,98.76,99.96,100.32,105.24Z" fill="#b3b2b1"/><path d="M162.96,97.2a46.6368,46.6368,0,0,1,9.6,7.56l.6.48,5.16-16.8c-4.44-.96-8.64-1.8-13.08-2.4Z" fill="#b3b2b1"/><path d="M178.92,111.72,191.04,114.48l10.08-20.04c-4.56-1.56-9.24-2.75995-13.92-3.96Z" fill="#b3b2b1"/><path d="M81.84,114.48c3.12-1.2,7.56-2.64,11.64-3.84l-7.8-20.76c-4.8,1.2-9,2.28-13.56,3.84C75.12,100.68,78.36,107.88,81.84,114.48Z" fill="#b3b2b1"/><path d="M63.72,122.04c.6-.6,7.56-3.6,12.24-5.64-3.6-6.36-7.92-13.56-11.4-20.04-5.28,1.8-9.84,3.72-14.88,5.88Z" fill="#b3b2b1"/><path d="M46.56,131.04c2.16-1.44006,4.56-2.64,7.08-4.2L37.68,108c-3.12,1.56-6.12,3.24-9.12,5.04Z" fill="#b3b2b1"/><path d="M197.28,117a186.07564,186.07564,0,0,1,28.44,14.76c2.52-2.28,15.84-16.32,17.76-18.24a221.25385,221.25385,0,0,0-34.92-16.56Z" fill="#b3b2b1"/><polygon points="140.16 89.64 135.48 89.52 135.36 78.36 140.16 83.4 140.16 89.64" fill="#b3b2b1"/><path d="M136.56,87.48a54,54,0,1,0,54,54A54.00429,54.00429,0,0,0,136.56,87.48Z" fill="#006bb6"/><path d="M139.92,91.56a109.56488,109.56488,0,0,0-12.12,5.4c-2.64-1.68-4.2-2.04-6.12-3.24005C127.32,91.56,133.56,91.32,139.92,91.56Z" fill="#ff671b"/><path d="M178.56,114.48c-12.72-12.84-31.8-11.88-48-16.43994,0,0,9.6-4.44006,14.4-5.76C158.28,94.56,171.12,102.36,178.56,114.48Z" fill="#ff671b"/><path d="M107.04,116.4a62.36331,62.36331,0,0,0-4.08,62.04c-12.6-10.44-20.04-31.08-14.4-50.88C93.12,121.08,99.12,115.44,107.04,116.4Z" fill="#ff671b"/><path d="M120.12,129.84c6.6,19.56,8.04,41.16,25.2,60.96-13.44,2.64-26.52-1.44006-36.96-8.04-13.08-18.96-11.88-47.28,1.2-65.76C115.8,118.92,119.28,127.2,120.12,129.84Z" fill="#ff671b"/><path d="M111,114.96a51.36378,51.36378,0,0,1,6.72-7.8c27.6,7.8,54,36.48,58.56,64.67993-1.32,2.04-4.44,5.04-6.6,7.20007a50.2323,50.2323,0,0,1-21.72,11.16c-12.96-13.44-17.16-30.84-21.72-48C122.76,129,120.36,119.04,111,114.96Z" fill="#ff671b"/><path d="M175.56,114.84c-13.32-11.76-31.92-10.2-47.52-15.72a67.89185,67.89185,0,0,0-8.52,6.24c27.72,8.64,52.8,35.76,58.8,63.72a49.2289,49.2289,0,0,0,8.04-21.24C186.96,135.96,186.96,125.16,175.56,114.84Z" fill="#ff671b"/><path d="M115.44,106.2a59.68468,59.68468,0,0,0-6.72,8.04h-.12c-7.32-1.68-13.08,2.16-17.64,6.96a46.16366,46.16366,0,0,1,11.76-16.56C107.16,104.76,110.52,104.76,115.44,106.2Z" fill="#ff671b"/><path d="M117.36,104.52a62.26182,62.26182,0,0,1,8.28-6.24l-7.08-3.48c-4.8,1.92-9.84,4.44-13.32,7.56A62.93466,62.93466,0,0,1,117.36,104.52Z" fill="#ff671b"/><path d="M128.88,21.24l-2.16,2.16-3.72.24-1.44-1.2-1.8,1.44-4.08.36-1.8-1.68,2.4-15.96,3.12-.36L117.72,20.4l2.16-.24L121.68,6l3-.24-1.2,14.04,2.16-.24,1.08-13.92a15.86282,15.86282,0,0,1,3.24-.24Z" fill="#006bb6"/><path d="M138.96,5.16V15.24h1.92l-.12-10.08s2.04.12,3,.24l.36,11.16-1.92,1.92h-.6l.12,4.8-3.36-.12v-4.8h-.72L135.6,16.2l.12-11.16C136.92,5.16,138.96,5.16,138.96,5.16Z" fill="#006bb6"/><path d="M114,6.96l-.48,3.36-3.84.72-.6,3.72c1.44-.12,2.16-.36,3.84-.6-.24,1.44-.36,2.04-.6,3.36L108.6,18l-.72,3.72,3.84-.48s-.36,2.4-.48,3.6a57.26353,57.26353,0,0,0-7.92,1.2S106.08,12.6,106.92,8.4Z" fill="#006bb6"/><path d="M99.96,26.64l-3.84.72L97.92,20.04l-1.2-2.64L93.48,27.84l-3.72.84c1.56-5.64,3.12-11.4,4.68-17.04,1.32-.48,2.28-.72,3.48-1.2a30.4017,30.4017,0,0,0,1.44,2.88l.96-3.6s2.4-.6,3.6-.96Z" fill="#006bb6"/><path d="M149.64,9l1.08,11.04,1.92.12L151.56,9.24Zm5.04-.72c.36,4.56,1.2,9,1.68,13.2L154.56,24l-5.4-.36-2.04-2.16c-.24-4.68-.6-9.36-.84-14.04.48-.6,1.32-1.2,1.92-1.8l4.56.36Z" fill="#006bb6"/><path d="M172.44,9.84c.72,2.64,2.04,8.04,2.04,8.04l1.32.24.6-.84-1.68-6.72s1.68.48,3.36.96l1.8,6.48-.72,1.2,1.44,1.56,2.28,7.92-3.72-.84-1.56-5.52-2.28-.48,1.2,5.52-3.84-.72c-1.32-6-3.72-17.64-3.72-17.64A29.88063,29.88063,0,0,1,172.44,9.84Z" fill="#006bb6"/><path d="M161.28,10.8l.6,4.44,2.04.24L163.08,11.04Zm5.28-.24,1.2,6.48-.6,1.08,1.2,1.56,1.2,6.48-3.72-.6-1.08-5.4L162.6,19.92l.72,5.28-3.6-.48-2.4-17.88,6.96,1.2Z" fill="#006bb6"/></svg>